<?xml version="1.0" encoding="utf-8"?>
<!-- Generator: Adobe Illustrator 17.1.0, SVG Export Plug-In . SVG Version: 6.00 Build 0)  -->
<!DOCTYPE svg PUBLIC "-//W3C//DTD SVG 1.1//EN" "http://www.w3.org/Graphics/SVG/1.1/DTD/svg11.dtd">
<svg version="1.1" id="Layer_1" xmlns="http://www.w3.org/2000/svg" xmlns:xlink="http://www.w3.org/1999/xlink" x="0px" y="0px"
	 viewBox="0 0 149.7 449" enable-background="new 0 0 149.7 449" xml:space="preserve">
<g>
	<rect x="0" y="0" fill="#E2231A" width="149.7" height="449"/>
	<g>
		<path fill="#FFFFFF" d="M50.4,253.4c0,6.6,3.1,14.2,9.2,18.8l0,0l0,0l-8.3,0V288H109v-15.8H76.2c-5.9,0-12.2-4.6-12.2-13
			c0-6.5,4.6-13.3,12.2-13.3H109V230H73.3C60.1,230,50.4,239.5,50.4,253.4"/>
		<polygon fill="#FFFFFF" points="51.4,117.6 90.6,131.9 51.4,146.2 51.4,164.2 109,140.5 109,123.2 51.4,99.5 		"/>
		<path fill="#FFFFFF" d="M91.3,304.8c4.9,6.7,6.1,10.5,6.1,16.5c0,5.5-1.7,9.7-4.7,12.8L76,293.7c-6.3,0.9-11.8,3.3-16.1,6.9
			c-6.2,5.3-9.4,13.2-9.4,22.7c0,17.4,12.8,30.5,29.8,30.5c17.4,0,29.8-13.1,29.8-32.2c0-10.7-5.1-21.6-11-26.8L91.3,304.8z
			 M68.8,335.2c-3.6-2.7-5.7-7-5.7-12.2c0-5.7,3.3-10,8.1-12.3l11.5,27.6C76.7,339.2,72.1,337.7,68.8,335.2z"/>
		<polygon fill="#FFFFFF" points="94.5,355.3 94.5,391.3 34.2,391.3 34.2,407.3 109,407.3 109,355.3 		"/>
		<path fill="#FFFFFF" d="M110,71.1c0,17.3-12.9,30.8-29.8,30.8c-16.7,0-29.8-13.6-29.8-31.1C50.4,53.6,63.3,40,80.2,40
			C96.9,40,110,53.7,110,71.1 M64,71.1c0,8.8,6.7,15.2,16.2,15.2c9.1,0,16.2-6.8,16.2-15.5c0-8.8-6.9-15.2-16.2-15.2
			C71.1,55.6,64,62.4,64,71.1"/>
		<path fill="#FFFFFF" d="M110,192.9c0,17.3-12.9,30.8-29.8,30.8c-16.7,0-29.8-13.6-29.8-31.1c0-17.3,12.9-30.8,29.8-30.8
			C96.9,161.8,110,175.5,110,192.9 M64,192.9c0,8.8,6.7,15.2,16.2,15.2c9.1,0,16.2-6.8,16.2-15.5c0-8.8-6.9-15.2-16.2-15.2
			C71.1,177.4,64,184.2,64,192.9"/>
		<g>
			<path fill="#FFFFFF" d="M102.2,37.9v2.6h-1.5v-6.7h1.5v2.6h6.8v1.6H102.2z M100.7,32v-1.7l3.9-2.5l-3.9-2.5v-1.6h8.3v1.5h-5.9
				l4,2.6v0.2l-4,2.6h5.9V32H100.7z"/>
		</g>
	</g>
</g>
</svg>
