<?xml version="1.0" encoding="utf-8"?>
<!-- Generator: Adobe Illustrator 13.0.0, SVG Export Plug-In . SVG Version: 6.00 Build 14948)  -->
<!DOCTYPE svg PUBLIC "-//W3C//DTD SVG 1.1//EN" "http://www.w3.org/Graphics/SVG/1.1/DTD/svg11.dtd">
<svg version="1.1" id="Layer_1" xmlns="http://www.w3.org/2000/svg" xmlns:xlink="http://www.w3.org/1999/xlink" x="0px" y="0px"
	 width="146.233px" height="42.048px" viewBox="0 0 146.233 42.048" enable-background="new 0 0 146.233 42.048"
	 xml:space="preserve">
<g>
	<polygon fill="#FFFFFF" points="0,0.617 0,5.019 4.764,5.019 4.764,35.62 9.519,35.62 9.519,5.019 14.233,5.019 14.233,0.617 	"/>
	<g>
		<defs>
			<rect id="SVGID_1_" width="146" height="42"/>
		</defs>
		<use xlink:href="#SVGID_1_"  overflow="visible" fill="#FFFFFF"/>
		<clipPath id="SVGID_2_">
			<use xlink:href="#SVGID_1_"  overflow="visible"/>
		</clipPath>
		<path clip-path="url(#SVGID_2_)" fill="#FFFFFF" d="M35.092,2.916c0,1.608-1.317,2.914-2.948,2.914
			c-1.628,0-2.945-1.305-2.945-2.914C29.199,1.304,30.517,0,32.145,0C33.775,0,35.092,1.304,35.092,2.916"/>
		<path clip-path="url(#SVGID_2_)" fill="#FFFFFF" d="M20.139,9.254h0.192c0.688-1.502,2.122-2.027,3.397-2.027
			c3.106,0,3.6,1.564,3.6,4.522v23.91h-4.41V12.702c0-0.929-0.351-1.66-1.383-1.66c-1.147,0-1.476,0.895-1.476,1.616v23.001h-4.41
			V0.552h4.489V9.254z"/>
		<rect x="29.961" y="7.583" clip-path="url(#SVGID_2_)" fill="#FFFFFF" width="4.509" height="28.104"/>
		<path clip-path="url(#SVGID_2_)" fill="#FFFFFF" d="M37.023,7.612h4.499v1.654h0.187c0.622-1.285,2.032-1.981,3.401-1.981
			c3.639,0,3.599,2.005,3.599,4.962v23.462h-4.417V12.937c0-1.004-0.281-1.835-1.327-1.835c-1.393,0-1.583,1.248-1.583,1.835v22.772
			h-4.358V7.612z"/>
		<polygon clip-path="url(#SVGID_2_)" fill="#FFFFFF" points="51.29,35.722 51.29,0.616 55.698,0.616 55.698,20.572 56.132,20.572 
			58.735,7.603 63.15,7.603 60.422,20.319 63.426,35.722 58.78,35.722 56.132,20.899 55.698,20.899 55.698,35.722 		"/>
		<path clip-path="url(#SVGID_2_)" fill="#FFFFFF" d="M71.528,25.91c0-0.931-0.448-2.011-0.943-2.846l-4.933-7.77
			c-0.894-1.425-1.49-2.85-1.539-4.52c0-0.93,0.049-2.6,0-4.858c0-3.291,2.533-5.841,6.008-5.841c3.875,0,6.258,2.601,6.31,6.871
			v4.813h-5.216V5.179c0-0.49-0.448-0.933-0.894-0.933c-0.596,0-0.994,0.345-0.994,0.885v5.154c0,0.735,0.349,1.815,0.747,2.455
			c1.339,2.061,4.582,6.985,5.626,8.804c0.794,1.325,0.992,2.896,1.042,4.563v4.615c0,3.141-2.583,5.741-6.108,5.741
			c-3.625,0-6.159-2.646-6.159-6.381v-6.674h5.165v7.559c0,1.03,0.297,1.325,0.893,1.325c0.646,0,0.995-0.295,0.995-1.325V25.91z"/>
		<path clip-path="url(#SVGID_2_)" fill="#FFFFFF" d="M77.373,7.634h4.719l0.975,9.327c0.497,4.418,0.646,8.838,0.796,12.568h0.198
			c0.248-3.436,0.248-8.001,0.745-11.586l1.143-10.309h4.717l-4.222,29.749C85.85,41.558,85.203,42,81.181,42
			c-1.094,0-2.037-0.05-2.933-0.05v-3.683h1.44c1.442,0,1.689-0.735,1.689-1.67c0-1.421-0.646-4.123-0.794-5.741L77.373,7.634z"/>
		<path clip-path="url(#SVGID_2_)" fill="#FFFFFF" d="M96.002,24.766v6.138c0,1.475,0.547,1.72,1.144,1.72
			c0.596,0,1.141-0.245,1.141-1.72v-2.896c0-4.518-7.053-7.756-7.053-12.224v-3.78c0-2.898,2.284-4.713,5.912-4.713
			c3.625,0,5.909,1.815,5.909,4.713v5.791h-4.769v-5.351c0-1.473-0.545-1.718-1.141-1.718c-0.597,0-1.144,0.245-1.144,1.718v2.31
			c0,2.846,7.053,6.726,7.053,10.896v5.697c0,2.896-2.284,4.711-5.909,4.711c-3.628,0-5.912-1.815-5.912-4.711v-6.582H96.002z"/>
		<path clip-path="url(#SVGID_2_)" fill="#FFFFFF" d="M110.531,7.634h2.166v3.73h-2.166v18.362c0,2.11,0.547,2.258,1.044,2.258
			h0.496v3.732h-2.73c-2.932,0-3.577-2.652-3.577-3.732v-20.62h-2.015v-3.73h2.015V2.577h4.768V7.634z"/>
		<path clip-path="url(#SVGID_2_)" fill="#FFFFFF" d="M125.405,24.669v6.678c0,2.896-2.283,4.711-5.911,4.711
			c-3.625,0-5.909-1.815-5.909-4.711V12.005c0-2.899,2.284-4.715,5.909-4.715c3.628,0,5.911,1.815,5.911,4.715v10.309h-7.052v8.934
			c0,1.277,0.445,1.375,1.141,1.375c0.697,0,1.144-0.098,1.144-1.375v-6.578H125.405z M120.638,12.101
			c0-1.275-0.446-1.375-1.144-1.375c-0.695,0-1.141,0.1-1.141,1.375v6.923h2.284V12.101z"/>
		<path clip-path="url(#SVGID_2_)" fill="#FFFFFF" d="M132.096,9.5h0.099c0.695-1.18,1.787-2.21,3.326-2.21
			c1.689,0,2.534,0.59,3.38,2.015c0.744-1.475,1.638-2.015,3.425-2.015c3.625,0,3.675,2.11,3.675,5.056v23.372h-4.767V13.035
			c0-0.785-0.051-1.72-1.143-1.72c-0.992,0-1.042,0.935-1.042,1.72v22.682h-4.769V13.035c0-0.785-0.052-1.72-1.143-1.72
			c-0.993,0-1.042,0.935-1.042,1.72v22.682h-4.769V7.634h4.769V9.5z"/>
	</g>
</g>
<rect x="0.233" y="0.048" opacity="0" fill="#FFFFFF" width="0" height="0"/>
<rect x="146.233" y="42.048" opacity="0" fill="#FFFFFF" width="0" height="0"/>
</svg>
