<?xml version="1.0" encoding="utf-8"?>
<!-- Generator: Adobe Illustrator 13.0.0, SVG Export Plug-In . SVG Version: 6.00 Build 14948)  -->
<!DOCTYPE svg PUBLIC "-//W3C//DTD SVG 1.1//EN" "http://www.w3.org/Graphics/SVG/1.1/DTD/svg11.dtd">
<svg version="1.1" id="Layer_1" xmlns="http://www.w3.org/2000/svg" xmlns:xlink="http://www.w3.org/1999/xlink" x="0px" y="0px"
	 width="1279.533px" height="365.904px" viewBox="0 0 1279.533 365.904" enable-background="new 0 0 1279.533 365.904"
	 xml:space="preserve">
<polygon fill="#FFFFFF" points="0,5.373 0,43.725 41.754,43.725 41.754,310.324 83.421,310.324 83.421,43.725 124.741,43.725 
	124.741,5.373 "/>
<g>
	<defs>
		<rect id="SVGID_1_" width="1279.533" height="365.904"/>
	</defs>
	<clipPath id="SVGID_2_">
		<use xlink:href="#SVGID_1_"  overflow="visible"/>
	</clipPath>
	<path clip-path="url(#SVGID_2_)" fill="#FFFFFF" d="M307.548,25.399c0,14.011-11.545,25.382-25.834,25.382
		c-14.271,0-25.816-11.371-25.816-25.382C255.898,11.354,267.443,0,281.714,0C296.003,0,307.548,11.354,307.548,25.399"/>
	<path clip-path="url(#SVGID_2_)" fill="#FFFFFF" d="M176.496,80.622h1.684c6.024-13.09,18.594-17.656,29.775-17.656
		c27.222,0,31.545,13.628,31.545,39.392v208.301h-38.646V110.657c0-8.09-3.073-14.462-12.118-14.462
		c-10.052,0-12.934,7.795-12.934,14.08v200.384h-38.647V4.805h39.341V80.622z"/>
	<rect x="262.58" y="66.063" clip-path="url(#SVGID_2_)" fill="#FFFFFF" width="39.514" height="244.846"/>
	<path clip-path="url(#SVGID_2_)" fill="#FFFFFF" d="M324.47,66.314h39.427v14.41h1.632c5.452-11.198,17.813-17.257,29.809-17.257
		c31.893,0,31.546,17.465,31.546,43.229V311.09h-38.716V112.704c0-8.75-2.465-15.989-11.632-15.989
		c-12.205,0-13.871,10.868-13.871,15.989V311.09H324.47V66.314z"/>
	<polygon clip-path="url(#SVGID_2_)" fill="#FFFFFF" points="449.504,311.204 449.504,5.368 488.133,5.368 488.133,179.224 
		491.935,179.224 514.747,66.237 553.446,66.237 529.539,177.019 555.859,311.204 515.146,311.204 491.935,182.071 488.133,182.071 
		488.133,311.204 	"/>
	<path clip-path="url(#SVGID_2_)" fill="#FFFFFF" d="M626.865,225.725c0-8.107-3.924-17.517-8.264-24.792l-43.23-67.69
		c-7.83-12.414-13.055-24.827-13.489-39.376c0-8.107,0.434-22.656,0-42.326c0-28.664,22.205-50.886,52.656-50.886
		c33.959,0,54.845,22.656,55.296,59.861v41.928h-45.712V45.117c0-4.271-3.924-8.125-7.83-8.125c-5.226,0-8.715,3.003-8.715,7.708
		v44.897c0,6.406,3.055,15.816,6.545,21.389c11.736,17.951,40.156,60.851,49.306,76.703c6.962,11.545,8.698,25.225,9.132,39.757
		v40.208c0,27.361-22.639,50.018-53.525,50.018c-31.771,0-53.976-23.056-53.976-55.591v-58.142h45.261v65.851
		c0,8.976,2.604,11.545,7.829,11.545c5.66,0,8.716-2.569,8.716-11.545V225.725z"/>
	<path clip-path="url(#SVGID_2_)" fill="#FFFFFF" d="M678.089,66.509h41.354l8.542,81.251c4.357,38.489,5.659,76.997,6.979,109.497
		h1.737c2.17-29.932,2.17-69.705,6.526-100.938l10.019-89.81h41.337l-36.997,259.169c-5.208,36.372-10.868,40.226-46.129,40.226
		c-9.583,0-17.847-0.434-25.694-0.434v-32.084h12.621c12.64,0,14.81-6.406,14.81-14.548c0-12.379-5.659-35.921-6.962-50.019
		L678.089,66.509z"/>
	<path clip-path="url(#SVGID_2_)" fill="#FFFFFF" d="M841.355,215.755v53.473c0,12.847,4.792,14.981,10.018,14.981
		s10.001-2.135,10.001-14.981v-25.227c0-39.357-61.808-67.569-61.808-106.494v-32.934c0-25.244,20.019-41.06,51.807-41.06
		c31.771,0,51.789,15.816,51.789,41.06v50.451h-41.788V108.41c0-12.83-4.775-14.965-10.001-14.965s-10.018,2.135-10.018,14.965
		v20.122c0,24.792,61.807,58.594,61.807,94.932v49.636c0,25.226-20.018,41.042-51.789,41.042c-31.788,0-51.807-15.816-51.807-41.042
		v-57.344H841.355z"/>
	<path clip-path="url(#SVGID_2_)" fill="#FFFFFF" d="M968.691,66.509h18.977v32.5h-18.977v159.967c0,18.385,4.793,19.67,9.149,19.67
		h4.341v32.518h-23.924c-25.695,0-31.354-23.107-31.354-32.518V99.009h-17.656v-32.5h17.656V22.446h41.788V66.509z"/>
	<path clip-path="url(#SVGID_2_)" fill="#FFFFFF" d="M1099.047,214.916v58.177c0,25.226-20.018,41.042-51.807,41.042
		c-31.771,0-51.787-15.816-51.787-41.042V104.584c0-25.261,20.017-41.077,51.787-41.077c31.789,0,51.807,15.816,51.807,41.077
		v89.809h-61.807v77.831c0,11.128,3.907,11.979,10,11.979c6.112,0,10.019-0.852,10.019-11.979v-57.309H1099.047z M1057.259,105.417
		c0-11.111-3.906-11.979-10.019-11.979c-6.093,0-10,0.868-10,11.979v60.313h20.019V105.417z"/>
	<path clip-path="url(#SVGID_2_)" fill="#FFFFFF" d="M1157.675,82.759h0.868c6.094-10.278,15.659-19.254,29.148-19.254
		c14.811,0,22.206,5.139,29.619,17.553c6.527-12.848,14.357-17.553,30.017-17.553c31.771,0,32.206,18.386,32.206,44.046v203.613
		h-41.771V113.558c0-6.84-0.451-14.983-10.018-14.983c-8.697,0-9.132,8.143-9.132,14.983v197.606h-41.789V113.558
		c0-6.84-0.451-14.983-10.017-14.983c-8.698,0-9.132,8.143-9.132,14.983v197.606h-41.789V66.509h41.789V82.759z"/>
</g>
</svg>
